<?xml version="1.0" encoding="utf-8"?>
<!-- Generator: Adobe Illustrator 16.0.0, SVG Export Plug-In . SVG Version: 6.00 Build 0)  -->
<!DOCTYPE svg PUBLIC "-//W3C//DTD SVG 1.1//EN" "http://www.w3.org/Graphics/SVG/1.1/DTD/svg11.dtd">
<svg version="1.1" id="Layer_1" xmlns="http://www.w3.org/2000/svg" xmlns:xlink="http://www.w3.org/1999/xlink" x="0px" y="0px"
	 width="190px" height="28px" viewBox="0 0 190 28" enable-background="new 0 0 190 28" xml:space="preserve">
<g>
	<g>
		<path fill-rule="evenodd" clip-rule="evenodd" fill="#565656" d="M36.084,4.253h4.773c1.81,0,3.331,0.37,4.563,1.113
			c1.23,0.741,2.16,1.804,2.788,3.191c0.629,1.39,0.946,3.045,0.955,4.971c0,1.94-0.326,3.612-0.973,5.013
			c-0.646,1.403-1.617,2.481-2.909,3.239c-1.292,0.755-2.897,1.132-4.816,1.132h-4.382V4.253z M46.302,23.401
			c1.571-0.893,2.771-2.176,3.596-3.851c0.824-1.677,1.237-3.684,1.237-6.022c0-2.318-0.404-4.307-1.208-5.962
			c-0.808-1.656-1.97-2.928-3.485-3.816c-1.514-0.886-3.336-1.33-5.462-1.33h-6.932v22.322h6.537
			C42.82,24.742,44.727,24.295,46.302,23.401z"/>
		<path fill-rule="evenodd" clip-rule="evenodd" fill="#565656" d="M89.447,9.396c-0.175-0.987-0.512-1.919-1.009-2.795
			c-0.499-0.875-1.136-1.65-1.908-2.321c-0.771-0.672-1.665-1.201-2.68-1.588c-1.016-0.385-2.13-0.578-3.352-0.578
			c-1.42,0-2.712,0.269-3.88,0.803c-1.172,0.535-2.185,1.302-3.038,2.306c-0.853,1.003-1.513,2.209-1.979,3.618
			c-0.463,1.408-0.695,2.988-0.695,4.74c0,2.327,0.403,4.35,1.214,6.064c0.81,1.719,1.945,3.051,3.407,3.992
			c1.459,0.939,3.162,1.41,5.11,1.41c1.745,0,3.289-0.377,4.636-1.134c1.342-0.755,2.4-1.827,3.169-3.215
			c0.771-1.39,1.156-3.033,1.156-4.937V13.93h-8.48v1.833h7.151l-0.654-0.209c0.015,1.564-0.274,2.911-0.865,4.045
			c-0.594,1.133-1.418,2.003-2.469,2.613c-1.055,0.611-2.27,0.918-3.644,0.918c-1.504,0-2.839-0.379-4.006-1.139
			c-1.164-0.759-2.084-1.853-2.75-3.276c-0.669-1.424-1.002-3.135-1.002-5.134c0-2.004,0.331-3.722,0.996-5.145
			c0.664-1.423,1.57-2.51,2.719-3.268c1.149-0.758,2.449-1.136,3.903-1.136c0.922,0,1.761,0.139,2.513,0.415
			c0.752,0.278,1.416,0.662,1.994,1.152c0.575,0.489,1.06,1.06,1.454,1.71c0.394,0.651,0.691,1.346,0.893,2.086H89.447z"/>
		<polygon fill-rule="evenodd" clip-rule="evenodd" fill="#565656" points="98.598,24.742 103.776,5.811 103.919,5.811
			109.095,24.742 111.274,24.742 117.389,2.42 115.307,2.42 110.251,21.615 110.076,21.615 105.02,2.42 102.663,2.42 97.607,21.615
			97.431,21.615 92.375,2.42 90.305,2.42 96.419,24.742 		"/>
		<path fill-rule="evenodd" clip-rule="evenodd" fill="#565656" d="M134.308,18.722c-0.669,1.43-1.584,2.52-2.742,3.274
			c-1.161,0.758-2.473,1.134-3.939,1.134c-1.469,0-2.778-0.379-3.936-1.139c-1.156-0.759-2.069-1.853-2.736-3.276
			c-0.669-1.424-1.001-3.135-1.001-5.134c0-2.004,0.336-3.722,1.006-5.145c0.673-1.423,1.587-2.51,2.741-3.268
			c1.157-0.758,2.464-1.136,3.926-1.136c1.467,0,2.776,0.378,3.932,1.136c1.157,0.758,2.068,1.848,2.736,3.275
			c0.67,1.429,1.006,3.141,1.006,5.137C135.304,15.58,134.973,17.294,134.308,18.722z M136.039,7.516
			c-0.829-1.717-1.969-3.047-3.418-3.988c-1.45-0.941-3.115-1.413-4.995-1.413c-1.875,0-3.539,0.472-4.993,1.413
			s-2.591,2.271-3.416,3.988c-0.826,1.719-1.237,3.741-1.237,6.065c0,2.327,0.411,4.35,1.237,6.064
			c0.825,1.719,1.962,3.051,3.411,3.992c1.448,0.939,3.113,1.41,4.998,1.41c1.88,0,3.545-0.471,4.995-1.41
			c1.449-0.941,2.589-2.273,3.418-3.992c0.827-1.715,1.243-3.737,1.243-6.064C137.282,11.257,136.866,9.234,136.039,7.516z"/>
		<polygon fill-rule="evenodd" clip-rule="evenodd" fill="#565656" points="159.37,24.742 159.37,17.492 162.345,14.158
			170.616,24.742 173.103,24.742 163.61,12.743 173.146,2.42 170.466,2.42 159.567,14.441 159.37,14.441 159.37,2.42 157.333,2.42
			157.333,24.742 		"/>
		<path fill-rule="evenodd" clip-rule="evenodd" fill="#565656" d="M188.983,8.001c-0.046-1.131-0.382-2.144-1.01-3.034
			c-0.628-0.889-1.477-1.588-2.545-2.099c-1.069-0.509-2.297-0.764-3.681-0.764c-1.374,0-2.613,0.257-3.714,0.769
			c-1.101,0.514-1.975,1.225-2.615,2.136c-0.644,0.914-0.963,1.969-0.963,3.166c0,1.434,0.481,2.608,1.446,3.533
			c0.965,0.924,2.327,1.646,4.078,2.168l2.67,0.785c0.924,0.268,1.733,0.578,2.437,0.927c0.701,0.348,1.247,0.78,1.639,1.292
			c0.394,0.513,0.591,1.146,0.591,1.9c0,0.894-0.251,1.678-0.749,2.351c-0.497,0.672-1.179,1.196-2.046,1.569
			c-0.869,0.373-1.86,0.561-2.971,0.561c-1.005,0-1.915-0.156-2.728-0.475c-0.812-0.314-1.473-0.777-1.983-1.388
			c-0.509-0.61-0.799-1.355-0.87-2.237h-2.092c0.077,1.18,0.436,2.215,1.077,3.108c0.638,0.894,1.518,1.593,2.638,2.097
			c1.118,0.505,2.438,0.758,3.958,0.758c1.611,0,2.994-0.281,4.151-0.834c1.156-0.554,2.041-1.311,2.66-2.262
			c0.616-0.951,0.926-2.023,0.926-3.215c0-0.929-0.181-1.727-0.54-2.394c-0.359-0.664-0.838-1.226-1.427-1.688
			c-0.592-0.46-1.246-0.844-1.958-1.148c-0.711-0.306-1.424-0.558-2.135-0.755l-2.354-0.677c-0.538-0.152-1.07-0.338-1.595-0.565
			c-0.528-0.225-1.008-0.495-1.439-0.813c-0.435-0.315-0.776-0.694-1.032-1.139c-0.255-0.441-0.381-0.957-0.381-1.546
			c0-0.799,0.221-1.513,0.672-2.141c0.446-0.628,1.064-1.121,1.852-1.477c0.788-0.357,1.702-0.536,2.74-0.536
			c1.476,0,2.699,0.368,3.673,1.102c0.975,0.733,1.522,1.721,1.646,2.963H188.983z"/>
		<path fill-rule="evenodd" clip-rule="evenodd" fill="#565656" d="M56.291,18.018h9.364l2.393,6.725h2.136L62.063,2.42h-2.181
			l-8.119,22.322h2.137L56.291,18.018z M65.003,16.186h-8.06L60.896,5.07h0.151L65.003,16.186z"/>
		<path fill-rule="evenodd" clip-rule="evenodd" fill="#565656" d="M142.864,15.719h4.469c0.295,0,0.579-0.01,0.855-0.029
			l4.889,9.053h2.353l-5.148-9.441c0.354-0.116,0.687-0.256,0.996-0.421c1.06-0.56,1.86-1.337,2.402-2.333
			c0.541-0.996,0.813-2.144,0.813-3.446c0-1.3-0.271-2.454-0.813-3.46c-0.542-1.005-1.343-1.795-2.409-2.365
			c-1.065-0.57-2.388-0.855-3.971-0.855h-7.203v22.322h2.036v-9.023H142.864z M142.864,13.854h-0.731V4.253h5.111
			c1.177,0,2.154,0.202,2.928,0.6c0.773,0.398,1.353,0.964,1.737,1.694c0.383,0.731,0.577,1.583,0.577,2.554
			c0,0.975-0.189,1.817-0.571,2.53c-0.382,0.71-0.96,1.262-1.732,1.646c-0.775,0.386-1.744,0.577-2.905,0.577H142.864z"/>
	</g>
	<g>
		<path fill-rule="evenodd" clip-rule="evenodd" fill="#EA5657" d="M1.825,0.673H1.809C1.576,0.675,1.303,0.707,1.103,0.799
			l-0.02,0.009c-0.025,0.011-0.05,0.023-0.074,0.038l-0.033,0.02C0.847,0.964,0.783,1.117,0.741,1.253L0.712,1.379v25.336
			c0,0.156,0.188,0.362,0.361,0.486c0.094,0.079,0.219,0.079,0.313,0.095c0.031,0,0.047,0.031,0.094,0.031l0.074-0.004
			c0.26-0.021,0.604-0.144,0.803-0.199c0.079-0.023,0.165-0.063,0.24-0.115c0.023-0.017,0.044-0.034,0.065-0.05l0.024-0.024
			c1.754-1.805,3.447-3.67,5.169-5.475c0.502-0.549,1.02-1.068,1.504-1.584c0.596-0.628,1.176-1.271,1.756-1.868
			c0.627-0.689,1.269-1.349,1.896-2.022c0.706-0.769,1.457-1.507,2.053-2.244c0.093-0.109,0.125-0.361,0.125-0.392
			c0-0.048-0.015-0.236-0.078-0.299c-0.202-0.234-0.457-0.513-0.754-0.821c-1.225-1.242-2.502-2.447-3.757-3.665L9.625,7.604
			C9.241,7.23,8.871,6.866,8.525,6.521L6.211,4.25L6.125,4.166C5.95,3.999,5.776,3.828,5.602,3.655
			c-0.457-0.444-0.918-0.887-1.369-1.32c-0.076-0.067-0.15-0.14-0.222-0.213l-0.104-0.1c-0.242-0.244-0.46-0.514-0.699-0.752
			C3.153,1.221,3.096,1.172,3.04,1.125C2.961,1.067,2.88,1.016,2.809,0.961c-0.131-0.082-0.271-0.152-0.426-0.2
			C2.198,0.709,2,0.678,1.857,0.673H1.825z M12.336,13.412L2.969,23.437V4.235L12.336,13.412z"/>
		<path fill-rule="evenodd" clip-rule="evenodd" fill="#429EBD" d="M15.566,27.224c0.127,0.096,0.267,0.079,0.376,0.079
			c0.11,0,0.316-0.032,0.425-0.126c1.698-1.412,3.41-2.888,5.076-4.316c0.392-0.329,0.801-0.675,1.163-0.988
			c0.455-0.377,0.927-0.77,1.366-1.161c0.535-0.456,1.101-0.926,1.62-1.382c0.643-0.534,1.304-1.099,1.933-1.647
			c0.69-0.598,1.478-1.194,2.137-1.869c0.079-0.077,0.096-0.188,0.126-0.267v-0.297c0-0.079-0.126-0.33-0.189-0.393
			c-2.027-2.136-4.055-4.302-6.065-6.452l-1.477-1.568c-0.63-0.661-1.259-1.351-1.887-2.01C19.496,4.104,18.82,3.383,18.16,2.66
			c-0.582-0.612-1.227-1.508-1.918-1.899c-0.125-0.077-0.33-0.063-0.486-0.063c-0.408,0-0.943,0-1.132,0.659v2.963l1.152,1.123
			c0.358,0.368,0.726,0.729,1.095,1.09V4.621l9.005,9.56h-3.049c-0.093,0.187-0.214,0.367-0.361,0.533
			c-0.541,0.585-1.087,1.172-1.637,1.76l4.639,0.014l-9.1,7.787c-0.315,0.266-1.1,0.878-1.525,1.38
			c-0.078,0.095-0.093,0.221-0.093,0.33C14.75,26.377,15.206,26.926,15.566,27.224z"/>
		<path fill-rule="evenodd" clip-rule="evenodd" fill="#2B3252" d="M10.926,5.463v0.003l0.024,0.022v1.83l0.102,0.101
			c0.688,0.684,1.41,1.366,2.131,2.059V7.673l0.022,0.022v-0.01l5.86,5.742l-5.86,6.244v-0.017l-0.022,0.026v-2.227l-2.233,2.373
			v2.274c-0.83,0.896-1.677,1.772-2.46,2.667c-0.391,0.439-1.111,1.176-1.111,1.286c0,0.047,0.03,0.267,0.047,0.393
			c0.014,0.126,0,0.267,0.047,0.393c0.078,0.188,0.327,0.455,0.641,0.455c0.031,0,0.045,0.027,0.085,0.031
			c0.041-0.002,0.083-0.005,0.125-0.01c0.266-0.035,0.688-0.17,0.81-0.21l0.028-0.01c0.074-0.039,0.147-0.091,0.214-0.146
			c0.769-0.784,1.523-1.58,2.274-2.38l0.005-0.005l0.468-0.498l0.004-0.006l0.003-0.005l0.005-0.003l0.005-0.007l0.007-0.007
			l0.004-0.005l0.005-0.005l0.005-0.006l0.005-0.005l0.007-0.007l0.005-0.005l0.004-0.005l0.005-0.005l0.005-0.005l0.002-0.003
			l0.008-0.007l0.002-0.005l0.005-0.004l0.007-0.007l0.007-0.008c0.709-0.758,1.419-1.518,2.133-2.265
			c0.563-0.612,1.127-1.194,1.692-1.79c0.595-0.627,1.174-1.255,1.754-1.866c0.642-0.675,1.268-1.349,1.895-2.024
			c0.642-0.687,1.31-1.386,1.925-2.074l0.141-0.166c0.074-0.121,0.129-0.306,0.129-0.41c0-0.119-0.01-0.229-0.074-0.336
			c-0.08-0.091-0.16-0.18-0.242-0.27c-1.379-1.43-2.84-2.806-4.275-4.195c-1.455-1.444-2.929-2.887-4.386-4.314
			c-0.768-0.753-1.551-1.506-2.303-2.228c-0.267-0.267-0.501-0.564-0.767-0.816C9.721,1.097,9.579,1.019,9.469,0.924
			C9.253,0.769,8.791,0.675,8.537,0.673H8.53c-0.211,0.002-0.809,0.097-0.9,0.267C7.519,1.097,7.473,1.253,7.426,1.41L7.332,1.739
			l3.543,3.672L10.926,5.463z"/>
	</g>
</g>
</svg>
