<?xml version="1.0" encoding="UTF-8" standalone="no"?>
<!DOCTYPE svg PUBLIC "-//W3C//DTD SVG 1.1//EN"
 "http://www.w3.org/Graphics/SVG/1.1/DTD/svg11.dtd">
<!-- Generated by graphviz version 2.43.0 (0)
 -->
<!-- Title: %3 Pages: 1 -->
<svg width="1020pt" height="322pt"
 viewBox="0.00 0.00 1020.00 322.00" xmlns="http://www.w3.org/2000/svg" xmlns:xlink="http://www.w3.org/1999/xlink">
<g id="graph0" class="graph" transform="scale(1 1) rotate(0) translate(4 318)">
<title>%3</title>
<polygon fill="white" stroke="transparent" points="-4,4 -4,-318 1016,-318 1016,4 -4,4"/>
<g id="clust1" class="cluster">
<title>cluster__legend</title>
<polygon fill="#ffffff" stroke="black" points="26,-64 26,-306 142,-306 142,-64 26,-64"/>
<text text-anchor="middle" x="84" y="-290.8" font-family="Helvetica,sans-Serif" font-size="14.00">Legend</text>
</g>
<!-- full_cdf -->
<g id="node1" class="node">
<title>full_cdf</title>
<path fill="#b4d8e4" stroke="#f06449" stroke-width="3" d="M713,-177C713,-177 659,-177 659,-177 653,-177 647,-171 647,-165 647,-165 647,-125 647,-125 647,-119 653,-113 659,-113 659,-113 713,-113 713,-113 719,-113 725,-119 725,-125 725,-125 725,-165 725,-165 725,-171 719,-177 713,-177"/>
<text text-anchor="start" x="658" y="-155.8" font-family="Helvetica,sans-Serif" font-weight="bold" font-size="14.00">full_cdf</text>
<text text-anchor="start" x="664.5" y="-127.8" font-family="Helvetica,sans-Serif" font-style="italic" font-size="14.00">Series</text>
</g>
<!-- probability_before_date -->
<g id="node4" class="node">
<title>probability_before_date</title>
<path fill="#ffc857" stroke="#f06449" stroke-width="3" d="M1000,-106C1000,-106 815,-106 815,-106 809,-106 803,-100 803,-94 803,-94 803,-54 803,-54 803,-48 809,-42 815,-42 815,-42 1000,-42 1000,-42 1006,-42 1012,-48 1012,-54 1012,-54 1012,-94 1012,-94 1012,-100 1006,-106 1000,-106"/>
<text text-anchor="start" x="814" y="-84.8" font-family="Helvetica,sans-Serif" font-weight="bold" font-size="14.00">probability_before_date</text>
<text text-anchor="start" x="886" y="-56.8" font-family="Helvetica,sans-Serif" font-style="italic" font-size="14.00">Series</text>
</g>
<!-- full_cdf&#45;&gt;probability_before_date -->
<g id="edge3" class="edge">
<title>full_cdf&#45;&gt;probability_before_date</title>
<path fill="none" stroke="black" d="M725.23,-132.63C745.58,-126.05 771.74,-117.59 797.81,-109.16"/>
<polygon fill="black" stroke="black" points="798.97,-112.46 807.41,-106.05 796.81,-105.8 798.97,-112.46"/>
</g>
<!-- due_date -->
<g id="node2" class="node">
<title>due_date</title>
<path fill="#b4d8e4" stroke="black" d="M335,-64C335,-64 264,-64 264,-64 258,-64 252,-58 252,-52 252,-52 252,-12 252,-12 252,-6 258,0 264,0 264,0 335,0 335,0 341,0 347,-6 347,-12 347,-12 347,-52 347,-52 347,-58 341,-64 335,-64"/>
<text text-anchor="start" x="263" y="-42.8" font-family="Helvetica,sans-Serif" font-weight="bold" font-size="14.00">due_date</text>
<text text-anchor="start" x="268.5" y="-14.8" font-family="Helvetica,sans-Serif" font-style="italic" font-size="14.00">datetime</text>
</g>
<!-- full_pdf -->
<g id="node5" class="node">
<title>full_pdf</title>
<path fill="#b4d8e4" stroke="black" d="M528,-147C528,-147 472,-147 472,-147 466,-147 460,-141 460,-135 460,-135 460,-95 460,-95 460,-89 466,-83 472,-83 472,-83 528,-83 528,-83 534,-83 540,-89 540,-95 540,-95 540,-135 540,-135 540,-141 534,-147 528,-147"/>
<text text-anchor="start" x="471" y="-125.8" font-family="Helvetica,sans-Serif" font-weight="bold" font-size="14.00">full_pdf</text>
<text text-anchor="start" x="478.5" y="-97.8" font-family="Helvetica,sans-Serif" font-style="italic" font-size="14.00">Series</text>
</g>
<!-- due_date&#45;&gt;full_pdf -->
<g id="edge5" class="edge">
<title>due_date&#45;&gt;full_pdf</title>
<path fill="none" stroke="black" d="M347.09,-50.54C364.37,-57.49 384.12,-65.52 402,-73 417.84,-79.63 435.06,-87.02 450.54,-93.74"/>
<polygon fill="black" stroke="black" points="449.35,-97.04 459.92,-97.82 452.15,-90.62 449.35,-97.04"/>
</g>
<!-- possible_dates -->
<g id="node6" class="node">
<title>possible_dates</title>
<path fill="#ffc857" stroke="black" d="M557,-64C557,-64 443,-64 443,-64 437,-64 431,-58 431,-52 431,-52 431,-12 431,-12 431,-6 437,0 443,0 443,0 557,0 557,0 563,0 569,-6 569,-12 569,-12 569,-52 569,-52 569,-58 563,-64 557,-64"/>
<text text-anchor="start" x="442" y="-42.8" font-family="Helvetica,sans-Serif" font-weight="bold" font-size="14.00">possible_dates</text>
<text text-anchor="start" x="478.5" y="-14.8" font-family="Helvetica,sans-Serif" font-style="italic" font-size="14.00">Series</text>
</g>
<!-- due_date&#45;&gt;possible_dates -->
<g id="edge8" class="edge">
<title>due_date&#45;&gt;possible_dates</title>
<path fill="none" stroke="black" d="M347.04,-32C369,-32 395.8,-32 420.75,-32"/>
<polygon fill="black" stroke="black" points="420.94,-35.5 430.94,-32 420.94,-28.5 420.94,-35.5"/>
</g>
<!-- probability_distribution -->
<g id="node3" class="node">
<title>probability_distribution</title>
<path fill="#b4d8e4" stroke="#f06449" stroke-width="3" d="M390,-230C390,-230 209,-230 209,-230 203,-230 197,-224 197,-218 197,-218 197,-178 197,-178 197,-172 203,-166 209,-166 209,-166 390,-166 390,-166 396,-166 402,-172 402,-178 402,-178 402,-218 402,-218 402,-224 396,-230 390,-230"/>
<text text-anchor="start" x="208" y="-208.8" font-family="Helvetica,sans-Serif" font-weight="bold" font-size="14.00">probability_distribution</text>
<text text-anchor="start" x="250.5" y="-180.8" font-family="Helvetica,sans-Serif" font-style="italic" font-size="14.00">rv_continuous</text>
</g>
<!-- probability_distribution&#45;&gt;full_pdf -->
<g id="edge6" class="edge">
<title>probability_distribution&#45;&gt;full_pdf</title>
<path fill="none" stroke="black" d="M380.36,-165.96C387.69,-162.95 394.99,-159.93 402,-157 417.84,-150.37 435.06,-142.98 450.54,-136.26"/>
<polygon fill="black" stroke="black" points="452.15,-139.38 459.92,-132.18 449.35,-132.96 452.15,-139.38"/>
</g>
<!-- full_pdf&#45;&gt;full_cdf -->
<g id="edge1" class="edge">
<title>full_pdf&#45;&gt;full_cdf</title>
<path fill="none" stroke="black" d="M540.02,-121.36C568.36,-125.98 606.87,-132.26 637.08,-137.19"/>
<polygon fill="black" stroke="black" points="636.55,-140.65 646.98,-138.8 637.67,-133.74 636.55,-140.65"/>
</g>
<!-- probability_on_date -->
<g id="node7" class="node">
<title>probability_on_date</title>
<path fill="#ffc857" stroke="#f06449" stroke-width="3" d="M762,-95C762,-95 610,-95 610,-95 604,-95 598,-89 598,-83 598,-83 598,-43 598,-43 598,-37 604,-31 610,-31 610,-31 762,-31 762,-31 768,-31 774,-37 774,-43 774,-43 774,-83 774,-83 774,-89 768,-95 762,-95"/>
<text text-anchor="start" x="609" y="-73.8" font-family="Helvetica,sans-Serif" font-weight="bold" font-size="14.00">probability_on_date</text>
<text text-anchor="start" x="664.5" y="-45.8" font-family="Helvetica,sans-Serif" font-style="italic" font-size="14.00">Series</text>
</g>
<!-- full_pdf&#45;&gt;probability_on_date -->
<g id="edge9" class="edge">
<title>full_pdf&#45;&gt;probability_on_date</title>
<path fill="none" stroke="black" d="M540.02,-103.97C554.22,-99.96 570.97,-95.23 587.95,-90.43"/>
<polygon fill="black" stroke="black" points="589.29,-93.69 597.96,-87.6 587.38,-86.95 589.29,-93.69"/>
</g>
<!-- possible_dates&#45;&gt;probability_before_date -->
<g id="edge4" class="edge">
<title>possible_dates&#45;&gt;probability_before_date</title>
<path fill="none" stroke="black" d="M569.23,-21.16C624.83,-14.31 705.15,-8.97 774,-22 792.44,-25.49 811.6,-31.48 829.43,-38.19"/>
<polygon fill="black" stroke="black" points="828.59,-41.62 839.18,-41.98 831.13,-35.1 828.59,-41.62"/>
</g>
<!-- possible_dates&#45;&gt;probability_on_date -->
<g id="edge10" class="edge">
<title>possible_dates&#45;&gt;probability_on_date</title>
<path fill="none" stroke="black" d="M569.25,-43.5C575.36,-44.53 581.62,-45.58 587.91,-46.64"/>
<polygon fill="black" stroke="black" points="587.36,-50.1 597.8,-48.31 588.52,-43.2 587.36,-50.1"/>
</g>
<!-- _due_date_inputs -->
<g id="node8" class="node">
<title>_due_date_inputs</title>
<polygon fill="#ffffff" stroke="black" stroke-dasharray="5,2" points="168,-54.5 0,-54.5 0,-9.5 168,-9.5 168,-54.5"/>
<text text-anchor="start" x="15" y="-27.8" font-family="Helvetica,sans-Serif" font-size="14.00">start_date</text>
<text text-anchor="start" x="91" y="-27.8" font-family="Helvetica,sans-Serif" font-size="14.00">datetime</text>
</g>
<!-- _due_date_inputs&#45;&gt;due_date -->
<g id="edge2" class="edge">
<title>_due_date_inputs&#45;&gt;due_date</title>
<path fill="none" stroke="black" d="M168.16,-32C192.83,-32 219.27,-32 241.85,-32"/>
<polygon fill="black" stroke="black" points="241.93,-35.5 251.93,-32 241.93,-28.5 241.93,-35.5"/>
</g>
<!-- _full_pdf_inputs -->
<g id="node9" class="node">
<title>_full_pdf_inputs</title>
<polygon fill="#ffffff" stroke="black" stroke-dasharray="5,2" points="392.5,-148 206.5,-148 206.5,-82 392.5,-82 392.5,-148"/>
<text text-anchor="start" x="230.5" y="-121.8" font-family="Helvetica,sans-Serif" font-size="14.00">start_date</text>
<text text-anchor="start" x="315.5" y="-121.8" font-family="Helvetica,sans-Serif" font-size="14.00">datetime</text>
<text text-anchor="start" x="221.5" y="-100.8" font-family="Helvetica,sans-Serif" font-size="14.00">current_date</text>
<text text-anchor="start" x="317" y="-100.8" font-family="Helvetica,sans-Serif" font-size="14.00">Optional</text>
</g>
<!-- _full_pdf_inputs&#45;&gt;full_pdf -->
<g id="edge7" class="edge">
<title>_full_pdf_inputs&#45;&gt;full_pdf</title>
<path fill="none" stroke="black" d="M392.78,-115C412.23,-115 432.04,-115 449.2,-115"/>
<polygon fill="black" stroke="black" points="449.52,-118.5 459.52,-115 449.52,-111.5 449.52,-118.5"/>
</g>
<!-- input -->
<g id="node10" class="node">
<title>input</title>
<polygon fill="#ffffff" stroke="black" stroke-dasharray="5,2" points="113.5,-274.5 54.5,-274.5 54.5,-237.5 113.5,-237.5 113.5,-274.5"/>
<text text-anchor="middle" x="84" y="-252.3" font-family="Helvetica,sans-Serif" font-size="14.00">input</text>
</g>
<!-- function -->
<g id="node11" class="node">
<title>function</title>
<path fill="#b4d8e4" stroke="black" d="M112,-219.5C112,-219.5 56,-219.5 56,-219.5 50,-219.5 44,-213.5 44,-207.5 44,-207.5 44,-194.5 44,-194.5 44,-188.5 50,-182.5 56,-182.5 56,-182.5 112,-182.5 112,-182.5 118,-182.5 124,-188.5 124,-194.5 124,-194.5 124,-207.5 124,-207.5 124,-213.5 118,-219.5 112,-219.5"/>
<text text-anchor="middle" x="84" y="-197.3" font-family="Helvetica,sans-Serif" font-size="14.00">function</text>
</g>
<!-- output -->
<g id="node12" class="node">
<title>output</title>
<path fill="#ffc857" stroke="black" d="M106,-164.5C106,-164.5 62,-164.5 62,-164.5 56,-164.5 50,-158.5 50,-152.5 50,-152.5 50,-139.5 50,-139.5 50,-133.5 56,-127.5 62,-127.5 62,-127.5 106,-127.5 106,-127.5 112,-127.5 118,-133.5 118,-139.5 118,-139.5 118,-152.5 118,-152.5 118,-158.5 112,-164.5 106,-164.5"/>
<text text-anchor="middle" x="84" y="-142.3" font-family="Helvetica,sans-Serif" font-size="14.00">output</text>
</g>
<!-- from cache -->
<g id="node13" class="node">
<title>from cache</title>
<path fill="#b4d8e4" stroke="#f06449" stroke-width="3" d="M122,-109.5C122,-109.5 46,-109.5 46,-109.5 40,-109.5 34,-103.5 34,-97.5 34,-97.5 34,-84.5 34,-84.5 34,-78.5 40,-72.5 46,-72.5 46,-72.5 122,-72.5 122,-72.5 128,-72.5 134,-78.5 134,-84.5 134,-84.5 134,-97.5 134,-97.5 134,-103.5 128,-109.5 122,-109.5"/>
<text text-anchor="middle" x="84" y="-87.3" font-family="Helvetica,sans-Serif" font-size="14.00">from cache</text>
</g>
</g>
</svg>
