<svg xmlns="http://www.w3.org/2000/svg" xmlns:xlink="http://www.w3.org/1999/xlink" xmlns:lucid="lucid" width="1040" height="320.67"><g transform="translate(-20 -79.66666666666667)" lucid:page-tab-id="AbBQMyoXRroV"><path d="M0 0h1360v1760H0z" fill="#fff"/><path d="M40 186c0-3.3 2.7-6 6-6h205c3.3 0 6 2.7 6 6v98c0 3.3-2.7 6-6 6H46c-3.3 0-6-2.7-6-6z" stroke="#5e5e5e" stroke-width="4" fill="#fff"/><use xlink:href="#a" transform="matrix(1,0,0,1,52,192) translate(58.07407407407409 26.666666666666657)"/><use xlink:href="#b" transform="matrix(1,0,0,1,52,192) translate(38.21296296296299 66.66666666666664)"/><path d="M261 235h42.76" stroke="#5e5e5e" stroke-width="4" fill="none"/><path d="M261.05 237H259v-4h2.05z" stroke="#5e5e5e" stroke-width=".05" fill="#5e5e5e"/><path d="M320.03 235l-14.27 4.64v-9.28z" stroke="#5e5e5e" stroke-width="4" fill="#5e5e5e"/><path d="M328.5 198.5c0-3.3 2.7-6 6-6h188c3.3 0 6 2.7 6 6v73c0 3.3-2.7 6-6 6h-188c-3.3 0-6-2.7-6-6z" stroke="#5e5e5e" stroke-width="4" fill="#fff"/><use xlink:href="#c" transform="matrix(1,0,0,1,340.5,204.5) translate(30.7777777777778 38.10416666666666)"/><path d="M532.5 235h22.76" stroke="#5e5e5e" stroke-width="4" fill="none"/><path d="M532.55 237h-2.05v-4h2.05z" stroke="#5e5e5e" stroke-width=".05" fill="#5e5e5e"/><path d="M571.53 235l-14.27 4.64v-9.28z" stroke="#5e5e5e" stroke-width="4" fill="#5e5e5e"/><path d="M580 198.5c0-3.3 2.7-6 6-6h248c3.3 0 6 2.7 6 6v73c0 3.3-2.7 6-6 6H586c-3.3 0-6-2.7-6-6z" stroke="#5e5e5e" stroke-width="4" fill="#fff"/><use xlink:href="#d" transform="matrix(1,0,0,1,592,204.5) translate(7.3518518518519045 38.10416666666666)"/><use xlink:href="#e" transform="matrix(1,0,0,1,592,204.5) translate(49.85185185185189 38.10416666666666)"/><use xlink:href="#f" transform="matrix(1,0,0,1,592,204.5) translate(138.64814814814815 38.10416666666666)"/><use xlink:href="#g" transform="matrix(1,0,0,1,592,204.5) translate(184.29629629629628 38.10416666666666)"/><path d="M844 235h30c3.3 0 6 2.7 6 6v43c0 3.3 2.7 6 6 6h9.26" stroke="#5e5e5e" stroke-width="4" fill="none"/><path d="M844.05 237H842v-4h2.05z" stroke="#5e5e5e" stroke-width=".05" fill="#5e5e5e"/><path d="M911.53 290l-14.27 4.64v-9.28z" stroke="#5e5e5e" stroke-width="4" fill="#5e5e5e"/><path d="M920 266c0-3.3 2.7-6 6-6h108c3.3 0 6 2.7 6 6v48c0 3.3-2.7 6-6 6H926c-3.3 0-6-2.7-6-6z" stroke="#5e5e5e" stroke-width="4" fill="#fff"/><use xlink:href="#h" transform="matrix(1,0,0,1,932,272) translate(10.962962962962976 26.666666666666657)"/><path d="M150.5 355.73l.6 2.26 1.4 1.4 2.27.6h198.17v4h-198.7l-3.8-1.03-2.9-2.9-1.04-3.8v-41.53h4zm831.5.54l-1.03 3.8-2.9 2.9-3.8 1.03H650.5v-4h323.23l2.26-.6 1.4-1.4.6-2.27V324h4z" stroke="#5e5e5e" stroke-width=".05" fill="#5e5e5e"/><path d="M982 324.05h-4V322h4z" fill="#5e5e5e"/><path d="M982.02 324.08H978v-2.1H982zm-4-2.06v2H982v-2z" stroke="#5e5e5e" stroke-width=".05" fill="#5e5e5e"/><path d="M153.14 312.74h-9.28l4.64-14.27z" fill="#5e5e5e"/><path d="M155.9 314.74h-14.8l7.4-22.74zm-9.28-4h3.76l-1.88-5.8z" stroke="#5e5e5e" stroke-width=".05" fill="#5e5e5e"/><use xlink:href="#i" transform="matrix(1,0,0,1,352.94001588174234,344.6666666666667) translate(0 23.11111111111111)"/><use xlink:href="#j" transform="matrix(1,0,0,1,352.94001588174234,344.6666666666667) translate(73.66666666666667 23.11111111111111)"/><use xlink:href="#k" transform="matrix(1,0,0,1,352.94001588174234,344.6666666666667) translate(116.8395061728395 23.11111111111111)"/><use xlink:href="#l" transform="matrix(1,0,0,1,352.94001588174234,344.6666666666667) translate(184.08641975308643 23.11111111111111)"/><path d="M920 166c0-3.3 2.7-6 6-6h108c3.3 0 6 2.7 6 6v48c0 3.3-2.7 6-6 6H926c-3.3 0-6-2.7-6-6z" stroke="#5e5e5e" stroke-width="4" fill="#fff"/><use xlink:href="#m" transform="matrix(1,0,0,1,932,172) translate(21.28703703703705 26.666666666666657)"/><path d="M844 235h30c3.3 0 6-2.7 6-6v-33c0-3.3 2.7-6 6-6h9.26" stroke="#5e5e5e" stroke-width="4" fill="none"/><path d="M844.05 237H842v-4h2.05z" stroke="#5e5e5e" stroke-width=".05" fill="#5e5e5e"/><path d="M911.53 190l-14.27 4.64v-9.28z" stroke="#5e5e5e" stroke-width="4" fill="#5e5e5e"/><path d="M978.07 117.03l2.9 2.9 1.03 3.8V156h-4v-31.73l-.6-2.26-1.4-1.4-2.27-.6H812.6v-4h161.67zM295.9 120H154.77l-2.26.6-1.4 1.4-.6 2.27v31h-4v-31.54l1.03-3.8 2.9-2.9 3.8-1.03H295.9z" stroke="#5e5e5e" stroke-width=".05" fill="#5e5e5e"/><path d="M982 158h-4v-2.05h4z" fill="#5e5e5e"/><path d="M982.02 158.03H978v-2.1H982zm-4-2.06v2H982v-2z" stroke="#5e5e5e" stroke-width=".05" fill="#5e5e5e"/><path d="M148.5 171.53l-4.64-14.27h9.28z" fill="#5e5e5e"/><path d="M148.5 178l-7.4-22.74h14.8zm-1.88-18.74l1.88 5.8 1.88-5.8z" stroke="#5e5e5e" stroke-width=".05" fill="#5e5e5e"/><g><use xlink:href="#n" transform="matrix(1,0,0,1,295.8950617283951,100.66666666666667) translate(0 23.11111111111111)"/><use xlink:href="#o" transform="matrix(1,0,0,1,295.8950617283951,100.66666666666667) translate(97.58024691358025 23.11111111111111)"/><use xlink:href="#p" transform="matrix(1,0,0,1,295.8950617283951,100.66666666666667) translate(219.07407407407408 23.11111111111111)"/><use xlink:href="#q" transform="matrix(1,0,0,1,295.8950617283951,100.66666666666667) translate(255.9074074074074 23.11111111111111)"/><use xlink:href="#r" transform="matrix(1,0,0,1,295.8950617283951,100.66666666666667) translate(427.3148148148148 23.11111111111111)"/></g><defs><path fill="#333" d="M266 0h-40l-56-210L115 0H75L2-248h35L96-30l15-64 43-154h32l59 218 59-218h35" id="s"/><path fill="#333" d="M114-163C36-179 61-72 57 0H25l-1-190h30c1 12-1 29 2 39 6-27 23-49 58-41v29" id="t"/><path fill="#333" d="M24-231v-30h32v30H24zM24 0v-190h32V0H24" id="u"/><path fill="#333" d="M59-47c-2 24 18 29 38 22v24C64 9 27 4 27-40v-127H5v-23h24l9-43h21v43h35v23H59v120" id="v"/><path fill="#333" d="M100-194c63 0 86 42 84 106H49c0 40 14 67 53 68 26 1 43-12 49-29l28 8c-11 28-37 45-77 45C44 4 14-33 15-96c1-61 26-98 85-98zm52 81c6-60-76-77-97-28-3 7-6 17-6 28h103" id="w"/><g id="a"><use transform="matrix(0.09259259259259256,0,0,0.09259259259259256,0,0)" xlink:href="#s"/><use transform="matrix(0.09259259259259256,0,0,0.09259259259259256,30.74074074074073,0)" xlink:href="#t"/><use transform="matrix(0.09259259259259256,0,0,0.09259259259259256,41.759259259259245,0)" xlink:href="#u"/><use transform="matrix(0.09259259259259256,0,0,0.09259259259259256,49.074074074074055,0)" xlink:href="#v"/><use transform="matrix(0.09259259259259256,0,0,0.09259259259259256,58.333333333333314,0)" xlink:href="#w"/></g><path fill="#333" d="M101-234c-31-9-42 10-38 44h38v23H63V0H32v-167H5v-23h27c-7-52 17-82 69-68v24" id="x"/><path fill="#333" d="M84 4C-5 8 30-112 23-190h32v120c0 31 7 50 39 49 72-2 45-101 50-169h31l1 190h-30c-1-10 1-25-2-33-11 22-28 36-60 37" id="y"/><path fill="#333" d="M117-194c89-4 53 116 60 194h-32v-121c0-31-8-49-39-48C34-167 62-67 57 0H25l-1-190h30c1 10-1 24 2 32 11-22 29-35 61-36" id="z"/><path fill="#333" d="M96-169c-40 0-48 33-48 73s9 75 48 75c24 0 41-14 43-38l32 2c-6 37-31 61-74 61-59 0-76-41-82-99-10-93 101-131 147-64 4 7 5 14 7 22l-32 3c-4-21-16-35-41-35" id="A"/><path fill="#333" d="M100-194c62-1 85 37 85 99 1 63-27 99-86 99S16-35 15-95c0-66 28-99 85-99zM99-20c44 1 53-31 53-75 0-43-8-75-51-75s-53 32-53 75 10 74 51 75" id="B"/><g id="b"><use transform="matrix(0.09259259259259256,0,0,0.09259259259259256,0,0)" xlink:href="#x"/><use transform="matrix(0.09259259259259256,0,0,0.09259259259259256,9.259259259259256,0)" xlink:href="#y"/><use transform="matrix(0.09259259259259256,0,0,0.09259259259259256,27.777777777777768,0)" xlink:href="#z"/><use transform="matrix(0.09259259259259256,0,0,0.09259259259259256,46.296296296296276,0)" xlink:href="#A"/><use transform="matrix(0.09259259259259256,0,0,0.09259259259259256,62.96296296296293,0)" xlink:href="#v"/><use transform="matrix(0.09259259259259256,0,0,0.09259259259259256,72.22222222222219,0)" xlink:href="#u"/><use transform="matrix(0.09259259259259256,0,0,0.09259259259259256,79.537037037037,0)" xlink:href="#B"/><use transform="matrix(0.09259259259259256,0,0,0.09259259259259256,98.05555555555551,0)" xlink:href="#z"/></g><path fill="#333" d="M212-179c-10-28-35-45-73-45-59 0-87 40-87 99 0 60 29 101 89 101 43 0 62-24 78-52l27 14C228-24 195 4 139 4 59 4 22-46 18-125c-6-104 99-153 187-111 19 9 31 26 39 46" id="C"/><path fill="#333" d="M210-169c-67 3-38 105-44 169h-31v-121c0-29-5-50-35-48C34-165 62-65 56 0H25l-1-190h30c1 10-1 24 2 32 10-44 99-50 107 0 11-21 27-35 58-36 85-2 47 119 55 194h-31v-121c0-29-5-49-35-48" id="D"/><g id="c"><use transform="matrix(0.09259259259259256,0,0,0.09259259259259256,0,0)" xlink:href="#C"/><use transform="matrix(0.09259259259259256,0,0,0.09259259259259256,23.981481481481474,0)" xlink:href="#B"/><use transform="matrix(0.09259259259259256,0,0,0.09259259259259256,42.499999999999986,0)" xlink:href="#D"/><use transform="matrix(0.09259259259259256,0,0,0.09259259259259256,70.18518518518516,0)" xlink:href="#D"/><use transform="matrix(0.09259259259259256,0,0,0.09259259259259256,97.87037037037034,0)" xlink:href="#u"/><use transform="matrix(0.09259259259259256,0,0,0.09259259259259256,105.18518518518515,0)" xlink:href="#v"/></g><path fill="#333" d="M33 0v-248h34V0H33" id="E"/><g id="d"><use transform="matrix(0.09259259259259256,0,0,0.09259259259259256,0,0)" xlink:href="#C"/><use transform="matrix(0.09259259259259256,0,0,0.09259259259259256,23.981481481481474,0)" xlink:href="#E"/></g><path fill="#333" d="M194 0L95-120 63-95V0H30v-248h33v124l119-124h40L117-140 236 0h-42" id="F"/><path fill="#333" d="M143 0L79-87 56-68V0H24v-261h32v163l83-92h37l-77 82L181 0h-38" id="G"/><path fill="#333" d="M135-143c-3-34-86-38-87 0 15 53 115 12 119 90S17 21 10-45l28-5c4 36 97 45 98 0-10-56-113-15-118-90-4-57 82-63 122-42 12 7 21 19 24 35" id="H"/><g id="e"><use transform="matrix(0.09259259259259256,0,0,0.09259259259259256,0,0)" xlink:href="#F"/><use transform="matrix(0.09259259259259256,0,0,0.09259259259259256,22.222222222222214,0)" xlink:href="#u"/><use transform="matrix(0.09259259259259256,0,0,0.09259259259259256,29.537037037037027,0)" xlink:href="#A"/><use transform="matrix(0.09259259259259256,0,0,0.09259259259259256,46.20370370370369,0)" xlink:href="#G"/><use transform="matrix(0.09259259259259256,0,0,0.09259259259259256,62.870370370370345,0)" xlink:href="#H"/></g><g id="f"><use transform="matrix(0.09259259259259256,0,0,0.09259259259259256,0,0)" xlink:href="#B"/><use transform="matrix(0.09259259259259256,0,0,0.09259259259259256,18.518518518518512,0)" xlink:href="#x"/><use transform="matrix(0.09259259259259256,0,0,0.09259259259259256,27.12962962962962,0)" xlink:href="#x"/></g><path fill="#333" d="M24-231v-30h32v30H24zM-9 49c24 4 33-6 33-30v-209h32V24c2 40-23 58-65 49V49" id="I"/><path fill="#333" d="M115-194c53 0 69 39 70 98 0 66-23 100-70 100C84 3 66-7 56-30L54 0H23l1-261h32v101c10-23 28-34 59-34zm-8 174c40 0 45-34 45-75 0-40-5-75-45-74-42 0-51 32-51 76 0 43 10 73 51 73" id="J"/><g id="g"><use transform="matrix(0.09259259259259256,0,0,0.09259259259259256,0,0)" xlink:href="#I"/><use transform="matrix(0.09259259259259256,0,0,0.09259259259259256,7.314814814814812,0)" xlink:href="#B"/><use transform="matrix(0.09259259259259256,0,0,0.09259259259259256,25.833333333333325,0)" xlink:href="#J"/></g><path fill="#333" d="M30-248c87 1 191-15 191 75 0 78-77 80-158 76V0H30v-248zm33 125c57 0 124 11 124-50 0-59-68-47-124-48v98" id="K"/><path fill="#333" d="M141-36C126-15 110 5 73 4 37 3 15-17 15-53c-1-64 63-63 125-63 3-35-9-54-41-54-24 1-41 7-42 31l-33-3c5-37 33-52 76-52 45 0 72 20 72 64v82c-1 20 7 32 28 27v20c-31 9-61-2-59-35zM48-53c0 20 12 33 32 33 41-3 63-29 60-74-43 2-92-5-92 41" id="L"/><g id="h"><use transform="matrix(0.09259259259259256,0,0,0.09259259259259256,0,0)" xlink:href="#K"/><use transform="matrix(0.09259259259259256,0,0,0.09259259259259256,22.222222222222214,0)" xlink:href="#L"/><use transform="matrix(0.09259259259259256,0,0,0.09259259259259256,40.740740740740726,0)" xlink:href="#H"/><use transform="matrix(0.09259259259259256,0,0,0.09259259259259256,57.40740740740739,0)" xlink:href="#H"/></g><path fill="#333" d="M169-182c-1-43-94-46-97-3 18 66 151 10 154 114 3 95-165 93-204 36-6-8-10-19-12-30l50-8c3 46 112 56 116 5-17-69-150-10-154-114-4-87 153-88 188-35 5 8 8 18 10 28" id="M"/><path fill="#333" d="M115-3C79 11 28 4 28-45v-112H4v-33h27l15-45h31v45h36v33H77v99c-1 23 16 31 38 25v30" id="N"/><path fill="#333" d="M133-34C117-15 103 5 69 4 32 3 11-16 11-54c-1-60 55-63 116-61 1-26-3-47-28-47-18 1-26 9-28 27l-52-2c7-38 36-58 82-57s74 22 75 68l1 82c-1 14 12 18 25 15v27c-30 8-71 5-69-32zm-48 3c29 0 43-24 42-57-32 0-66-3-65 30 0 17 8 27 23 27" id="O"/><path fill="#333" d="M135-150c-39-12-60 13-60 57V0H25l-1-190h47c2 13-1 29 3 40 6-28 27-53 61-41v41" id="P"/><g id="i"><use transform="matrix(0.08024691358024691,0,0,0.08024691358024691,0,0)" xlink:href="#M"/><use transform="matrix(0.08024691358024691,0,0,0.08024691358024691,19.25925925925926,0)" xlink:href="#N"/><use transform="matrix(0.08024691358024691,0,0,0.08024691358024691,28.80864197530864,0)" xlink:href="#O"/><use transform="matrix(0.08024691358024691,0,0,0.08024691358024691,44.858024691358025,0)" xlink:href="#P"/><use transform="matrix(0.08024691358024691,0,0,0.08024691358024691,56.092592592592595,0)" xlink:href="#N"/></g><path fill="#333" d="M110-194c64 0 96 36 96 99 0 64-35 99-97 99-61 0-95-36-95-99 0-62 34-99 96-99zm-1 164c35 0 45-28 45-65 0-40-10-65-43-65-34 0-45 26-45 65 0 36 10 65 43 65" id="Q"/><path fill="#333" d="M135-194c87-1 58 113 63 194h-50c-7-57 23-157-34-157-59 0-34 97-39 157H25l-1-190h47c2 12-1 28 3 38 12-26 28-41 61-42" id="R"/><g id="j"><use transform="matrix(0.08024691358024691,0,0,0.08024691358024691,0,0)" xlink:href="#Q"/><use transform="matrix(0.08024691358024691,0,0,0.08024691358024691,17.574074074074073,0)" xlink:href="#R"/></g><path fill="#333" d="M185-48c-13 30-37 53-82 52C43 2 14-33 14-96s30-98 90-98c62 0 83 45 84 108H66c0 31 8 55 39 56 18 0 30-7 34-22zm-45-69c5-46-57-63-70-21-2 6-4 13-4 21h74" id="S"/><path fill="#333" d="M144 0l-44-69L55 0H2l70-98-66-92h53l41 62 40-62h54l-67 91 71 99h-54" id="T"/><g id="k"><use transform="matrix(0.08024691358024691,0,0,0.08024691358024691,0,0)" xlink:href="#R"/><use transform="matrix(0.08024691358024691,0,0,0.08024691358024691,17.574074074074073,0)" xlink:href="#S"/><use transform="matrix(0.08024691358024691,0,0,0.08024691358024691,33.623456790123456,0)" xlink:href="#T"/><use transform="matrix(0.08024691358024691,0,0,0.08024691358024691,49.672839506172835,0)" xlink:href="#N"/></g><path fill="#333" d="M121-226c-27-7-43 5-38 36h38v33H83V0H34v-157H6v-33h28c-9-59 32-81 87-68v32" id="U"/><path fill="#333" d="M85 4C-2 5 27-109 22-190h50c7 57-23 150 33 157 60-5 35-97 40-157h50l1 190h-47c-2-12 1-28-3-38-12 25-28 42-61 42" id="V"/><path fill="#333" d="M190-63c-7 42-38 67-86 67-59 0-84-38-90-98-12-110 154-137 174-36l-49 2c-2-19-15-32-35-32-30 0-35 28-38 64-6 74 65 87 74 30" id="W"/><path fill="#333" d="M25-224v-37h50v37H25zM25 0v-190h50V0H25" id="X"/><g id="l"><use transform="matrix(0.08024691358024691,0,0,0.08024691358024691,0,0)" xlink:href="#U"/><use transform="matrix(0.08024691358024691,0,0,0.08024691358024691,9.549382716049383,0)" xlink:href="#V"/><use transform="matrix(0.08024691358024691,0,0,0.08024691358024691,27.123456790123456,0)" xlink:href="#R"/><use transform="matrix(0.08024691358024691,0,0,0.08024691358024691,44.69753086419753,0)" xlink:href="#W"/><use transform="matrix(0.08024691358024691,0,0,0.08024691358024691,60.74691358024691,0)" xlink:href="#N"/><use transform="matrix(0.08024691358024691,0,0,0.08024691358024691,70.29629629629629,0)" xlink:href="#X"/><use transform="matrix(0.08024691358024691,0,0,0.08024691358024691,78.32098765432099,0)" xlink:href="#Q"/><use transform="matrix(0.08024691358024691,0,0,0.08024691358024691,95.89506172839506,0)" xlink:href="#R"/></g><path fill="#333" d="M63-220v92h138v28H63V0H30v-248h175v28H63" id="Y"/><path fill="#333" d="M24 0v-261h32V0H24" id="Z"/><g id="m"><use transform="matrix(0.09259259259259256,0,0,0.09259259259259256,0,0)" xlink:href="#Y"/><use transform="matrix(0.09259259259259256,0,0,0.09259259259259256,20.27777777777777,0)" xlink:href="#L"/><use transform="matrix(0.09259259259259256,0,0,0.09259259259259256,38.79629629629628,0)" xlink:href="#u"/><use transform="matrix(0.09259259259259256,0,0,0.09259259259259256,46.11111111111109,0)" xlink:href="#Z"/></g><path fill="#333" d="M24-248c120-7 223 5 221 122C244-46 201 0 124 0H24v-248zM76-40c74 7 117-18 117-86 0-67-45-88-117-82v168" id="aa"/><path fill="#333" d="M135-194c52 0 70 43 70 98 0 56-19 99-73 100-30 1-46-15-58-35L72 0H24l1-261h50v104c11-23 29-37 60-37zM114-30c31 0 40-27 40-66 0-37-7-63-39-63s-41 28-41 65c0 36 8 64 40 64" id="ab"/><path fill="#333" d="M195-6C206 82 75 100 31 46c-4-6-6-13-8-21l49-6c3 16 16 24 34 25 40 0 42-37 40-79-11 22-30 35-61 35-53 0-70-43-70-97 0-56 18-96 73-97 30 0 46 14 59 34l2-30h47zm-90-29c32 0 41-27 41-63 0-35-9-62-40-62-32 0-39 29-40 63 0 36 9 62 39 62" id="ac"/><g id="n"><use transform="matrix(0.08024691358024691,0,0,0.08024691358024691,0,0)" xlink:href="#aa"/><use transform="matrix(0.08024691358024691,0,0,0.08024691358024691,20.78395061728395,0)" xlink:href="#S"/><use transform="matrix(0.08024691358024691,0,0,0.08024691358024691,36.83333333333333,0)" xlink:href="#ab"/><use transform="matrix(0.08024691358024691,0,0,0.08024691358024691,54.407407407407405,0)" xlink:href="#V"/><use transform="matrix(0.08024691358024691,0,0,0.08024691358024691,71.98148148148148,0)" xlink:href="#ac"/></g><g id="o"><use transform="matrix(0.08024691358024691,0,0,0.08024691358024691,0,0)" xlink:href="#U"/><use transform="matrix(0.08024691358024691,0,0,0.08024691358024691,9.549382716049383,0)" xlink:href="#V"/><use transform="matrix(0.08024691358024691,0,0,0.08024691358024691,27.123456790123456,0)" xlink:href="#R"/><use transform="matrix(0.08024691358024691,0,0,0.08024691358024691,44.69753086419753,0)" xlink:href="#W"/><use transform="matrix(0.08024691358024691,0,0,0.08024691358024691,60.74691358024691,0)" xlink:href="#N"/><use transform="matrix(0.08024691358024691,0,0,0.08024691358024691,70.29629629629629,0)" xlink:href="#X"/><use transform="matrix(0.08024691358024691,0,0,0.08024691358024691,78.32098765432099,0)" xlink:href="#Q"/><use transform="matrix(0.08024691358024691,0,0,0.08024691358024691,95.89506172839506,0)" xlink:href="#R"/></g><g id="p"><use transform="matrix(0.08024691358024691,0,0,0.08024691358024691,0,0)" xlink:href="#Q"/><use transform="matrix(0.08024691358024691,0,0,0.08024691358024691,17.574074074074073,0)" xlink:href="#P"/></g><path fill="#333" d="M220-157c-53 9-28 100-34 157h-49v-107c1-27-5-49-29-50C55-147 81-57 75 0H25l-1-190h47c2 12-1 28 3 38 10-53 101-56 108 0 13-22 24-43 59-42 82 1 51 116 57 194h-49v-107c-1-25-5-48-29-50" id="ad"/><path fill="#333" d="M135-194c53 0 70 44 70 98 0 56-19 98-73 100-31 1-45-17-59-34 3 33 2 69 2 105H25l-1-265h48c2 10 0 23 3 31 11-24 29-35 60-35zM114-30c33 0 39-31 40-66 0-38-9-64-40-64-56 0-55 130 0 130" id="ae"/><path fill="#333" d="M137-138c1-29-70-34-71-4 15 46 118 7 119 86 1 83-164 76-172 9l43-7c4 19 20 25 44 25 33 8 57-30 24-41C81-84 22-81 20-136c-2-80 154-74 161-7" id="af"/><g id="q"><use transform="matrix(0.08024691358024691,0,0,0.08024691358024691,0,0)" xlink:href="#W"/><use transform="matrix(0.08024691358024691,0,0,0.08024691358024691,16.049382716049383,0)" xlink:href="#Q"/><use transform="matrix(0.08024691358024691,0,0,0.08024691358024691,33.623456790123456,0)" xlink:href="#ad"/><use transform="matrix(0.08024691358024691,0,0,0.08024691358024691,59.30246913580247,0)" xlink:href="#ae"/><use transform="matrix(0.08024691358024691,0,0,0.08024691358024691,76.87654320987654,0)" xlink:href="#O"/><use transform="matrix(0.08024691358024691,0,0,0.08024691358024691,92.92592592592592,0)" xlink:href="#P"/><use transform="matrix(0.08024691358024691,0,0,0.08024691358024691,104.1604938271605,0)" xlink:href="#X"/><use transform="matrix(0.08024691358024691,0,0,0.08024691358024691,112.18518518518519,0)" xlink:href="#af"/><use transform="matrix(0.08024691358024691,0,0,0.08024691358024691,128.23456790123458,0)" xlink:href="#Q"/><use transform="matrix(0.08024691358024691,0,0,0.08024691358024691,145.80864197530866,0)" xlink:href="#R"/></g><g id="r"><use transform="matrix(0.08024691358024691,0,0,0.08024691358024691,0,0)" xlink:href="#Q"/><use transform="matrix(0.08024691358024691,0,0,0.08024691358024691,17.574074074074073,0)" xlink:href="#V"/><use transform="matrix(0.08024691358024691,0,0,0.08024691358024691,35.148148148148145,0)" xlink:href="#N"/><use transform="matrix(0.08024691358024691,0,0,0.08024691358024691,44.69753086419753,0)" xlink:href="#ae"/><use transform="matrix(0.08024691358024691,0,0,0.08024691358024691,62.27160493827161,0)" xlink:href="#V"/><use transform="matrix(0.08024691358024691,0,0,0.08024691358024691,79.84567901234568,0)" xlink:href="#N"/></g></defs></g></svg>
